<?xml version="1.0" encoding="utf-8"?>
<!-- Generator: Adobe Illustrator 18.1.1, SVG Export Plug-In . SVG Version: 6.00 Build 0)  -->
<svg version="1.1" id="Layer_1" xmlns="http://www.w3.org/2000/svg" xmlns:xlink="http://www.w3.org/1999/xlink" x="0px" y="0px"
	 viewBox="0 0 117 36" enable-background="new 0 0 117 36" xml:space="preserve">
<g>
	<g>
		<g>
			<path fill="#3A9ECF" d="M24,26.1c-2.8,0-6.1-1.6-9.1-4.4c-2.8-2.6-4.3-5.2-4.3-7.4c0-1.2,0.5-2.3,1.4-3.1c2.4-2.4,6.7-1.3,11,2.7
				c1.4,1.3,2.4,2.5,3.2,3.8c0.3,0.5,0.1,1.2-0.4,1.5c-0.5,0.3-1.2,0.1-1.5-0.4c-0.6-1.1-1.5-2.2-2.8-3.3c-3.3-3.1-6.5-4.2-7.9-2.7
				c-0.5,0.4-0.7,0.9-0.7,1.5c0,1.6,1.3,3.7,3.6,5.8c3.3,3.1,7,4.5,9.3,3.5c6.4-2.9,4.5-10.7,3.7-13c-0.2-0.6,0.1-1.2,0.7-1.4
				c0.6-0.2,1.2,0.1,1.4,0.7c1.8,5.7,1.5,12.9-5,15.7C25.8,25.9,24.9,26.1,24,26.1z"/>
		</g>
		<g>
			<path fill="#3A9ECF" d="M25.2,31c-4.3,0-9.2-2.2-13.5-6.1c0,0,0,0,0,0l0,0c0,0-0.1-0.1-0.1-0.1l-0.1-0.1c-3.6-3.4-5.7-7-6.1-10.4
				C5,11.5,5.9,9,7.8,7.3c1.8-1.7,4.4-2.6,7.3-2.3c3.6,0.3,7.4,2.3,11,5.7l0.3,0.2c0.5,0.4,0.5,1.1,0.1,1.6
				c-0.4,0.5-1.1,0.5-1.6,0.1l-0.3-0.3c-3.2-3-6.6-4.8-9.7-5.1C12.7,7,10.7,7.6,9.4,8.9C8,10.2,7.4,12,7.6,14c0.3,2.9,2.2,6,5.4,9
				l0.1,0.1c0,0,0,0,0,0l0.1,0.1c5.2,4.8,11.3,6.7,15.6,4.8c2.3-1,4-2.5,5.1-4.4c0.3-0.5,1-0.7,1.5-0.4c0.5,0.3,0.7,1,0.4,1.5
				c-1.4,2.4-3.5,4.2-6.2,5.4C28.3,30.7,26.8,31,25.2,31z"/>
		</g>
		<g>
			<path fill="#3A9ECF" d="M26.3,36c-5.8,0-12.3-2.8-17.9-8c0,0-0.1-0.1-0.1-0.1l-0.2-0.2c-4.8-4.5-7.6-9.3-8.1-14.1
				C-0.4,9.6,0.9,6,3.7,3.4c2.7-2.6,6.5-3.8,10.8-3.4C18.7,0.5,23,2.3,27,5.5c0.5,0.4,0.6,1.1,0.2,1.6c-0.4,0.5-1.1,0.6-1.6,0.2
				C21.9,4.4,18,2.7,14.3,2.3C10.7,2,7.5,3,5.2,5.1C3,7.1,2,10.1,2.3,13.4c0.5,4.2,3,8.6,7.4,12.7l0.2,0.2c0,0,0,0,0,0
				c0,0,0.1,0,0.1,0.1c7.1,6.6,15.6,9,21.9,6.2c0.6-0.3,1.2,0,1.5,0.6c0.3,0.6,0,1.2-0.6,1.5C30.8,35.6,28.6,36,26.3,36z"/>
		</g>
	</g>
	<g>
		<g>
			<path fill="#66717E" d="M49,15.1c-2.7,0-4-1.8-4-4.5c0-2.5,1.4-4.4,4-4.4c1.2,0,2.2,0.4,3.1,1.3l-0.9,1c-0.7-0.7-1.3-1-2.1-1
				c-1.6,0-2.5,1-2.5,3.1c0,1.8,0.7,3.2,2.5,3.2c0.8,0,1.6-0.3,2.3-1l0.8,1C51.2,14.7,50.2,15.1,49,15.1z"/>
			<path fill="#66717E" d="M59.4,12.2h-4.5c0,1.1,0.6,1.7,1.8,1.7c0.7,0,1.2-0.2,1.9-0.6l0.5,1c-0.8,0.5-1.6,0.7-2.5,0.7
				c-2.1,0-3.2-1.3-3.2-3.3c0-2.3,1.4-3.4,3.1-3.4c1.8,0,2.9,1.3,2.9,3.3C59.4,11.8,59.4,12,59.4,12.2z M56.5,9.5
				c-1.2,0-1.7,0.8-1.7,1.7H58C58,10.2,57.6,9.5,56.5,9.5z"/>
			<path fill="#66717E" d="M65.2,14.9v-3.7c0-1-0.1-1.6-1.2-1.6c-0.9,0-1.4,0.5-1.4,1.4v3.9H61V8.5h1.3l0.1,0.8h0
				c0.5-0.7,1.1-0.9,2-0.9c1.8,0,2.3,1,2.3,2.6v4H65.2z"/>
			<path fill="#66717E" d="M71.1,15c-1.7,0-2-0.5-2-1.8V9.7H68V8.5h1.1V6.8h1.5v1.7h1.5v1.2h-1.5V13c0,0.7,0.1,0.8,1.1,0.8
				c0.1,0,0.2,0,0.4,0V15C71.7,15,71.4,15,71.1,15z"/>
			<path fill="#66717E" d="M79.2,12.2h-4.5c0,1.1,0.6,1.7,1.8,1.7c0.7,0,1.2-0.2,1.9-0.6l0.5,1c-0.8,0.5-1.6,0.7-2.5,0.7
				c-2.1,0-3.2-1.3-3.2-3.3c0-2.3,1.4-3.4,3.1-3.4c1.8,0,2.9,1.3,2.9,3.3C79.3,11.8,79.3,12,79.2,12.2z M76.4,9.5
				c-1.2,0-1.7,0.8-1.7,1.7h3.2C77.9,10.2,77.4,9.5,76.4,9.5z"/>
			<path fill="#66717E" d="M84.3,9.7c-1.1,0-1.9,0.2-1.9,1.4v3.9h-1.5V8.5h1.3l0.1,0.8h0c0.4-0.7,0.9-1,1.9-1h0.4v1.3H84.3z"/>
			<path fill="#66717E" d="M92.4,7c-0.7,0-0.9,0.2-0.9,0.8v0.7H93v1.2h-1.4v5.2h-1.5V9.7h-1V8.5h1V7.6c0-1.2,0.3-1.7,2.1-1.7
				c0.3,0,0.6,0,0.9,0.1v1.1C92.9,7,92.7,7,92.4,7z"/>
			<path fill="#66717E" d="M97.2,8.4c2.1,0,3.2,1.3,3.2,3.4c0,2-1,3.4-3.2,3.4c-2.2,0-3.2-1.4-3.2-3.4C94,9.9,94.9,8.4,97.2,8.4z
				 M97.2,13.9c1.2,0,1.6-0.9,1.6-2.2c0-1.3-0.4-2.2-1.6-2.2c-1.3,0-1.7,0.9-1.7,2.2C95.5,13,95.9,13.9,97.2,13.9z"/>
			<path fill="#66717E" d="M105.4,9.7c-1.1,0-1.9,0.2-1.9,1.4v3.9H102V8.5h1.3l0.1,0.8h0c0.4-0.7,0.9-1,1.9-1h0.4v1.3H105.4z"/>
			<path fill="#66717E" d="M49,27.7c-2.7,0-4-1.8-4-4.5c0-2.5,1.4-4.4,4-4.4c1.2,0,2.2,0.4,3.1,1.3l-0.9,1c-0.7-0.7-1.3-1-2.1-1
				c-1.6,0-2.5,1-2.5,3.1c0,1.8,0.7,3.2,2.5,3.2c0.8,0,1.6-0.3,2.3-1l0.8,1C51.2,27.3,50.2,27.7,49,27.7z"/>
			<path fill="#66717E" d="M54.5,20.2c-0.5,0-0.9-0.3-0.9-0.8c0-0.5,0.4-0.8,0.9-0.8c0.6,0,0.9,0.3,0.9,0.8
				C55.4,19.9,55,20.2,54.5,20.2z M53.7,27.5v-6.4h1.5v6.4H53.7z"/>
			<path fill="#66717E" d="M60.6,27.5h-1.7l-2.3-6.4h1.6l1.5,5.1h0.1l1.5-5.1h1.5L60.6,27.5z"/>
			<path fill="#66717E" d="M64.9,20.2c-0.5,0-0.9-0.3-0.9-0.8c0-0.5,0.4-0.8,0.9-0.8c0.6,0,0.9,0.3,0.9,0.8
				C65.9,19.9,65.5,20.2,64.9,20.2z M64.2,27.5v-6.4h1.5v6.4H64.2z"/>
			<path fill="#66717E" d="M72.3,22.8c-0.5-0.5-1-0.7-1.7-0.7c-1.3,0-1.8,1-1.8,2.2c0,1.2,0.4,2.2,1.8,2.2c0.7,0,1.2-0.2,1.8-0.7
				l0.5,1c-0.7,0.5-1.4,0.8-2.4,0.8c-2,0-3.2-1.3-3.2-3.3c0-2.1,1.2-3.4,3.2-3.4c0.8,0,1.7,0.3,2.4,0.9L72.3,22.8z"/>
			<path fill="#66717E" d="M80.8,27.5H78V19c0.8-0.1,1.8-0.2,2.8-0.2c2.6,0,4.2,1.4,4.2,4.3C85,25.9,83.6,27.5,80.8,27.5z
				 M80.8,20.1c-0.4,0-0.9,0-1.3,0.1v6.1c0.4,0,0.8,0,1.1,0c1.8,0,2.8-0.7,2.8-3.1C83.4,21.7,83,20.1,80.8,20.1z"/>
			<path fill="#66717E" d="M92.3,24.8h-4.5c0,1.1,0.6,1.7,1.8,1.7c0.7,0,1.2-0.2,1.9-0.6l0.5,1c-0.8,0.5-1.6,0.7-2.5,0.7
				c-2.1,0-3.2-1.3-3.2-3.3c0-2.3,1.4-3.4,3.1-3.4c1.8,0,2.9,1.3,2.9,3.3C92.3,24.3,92.3,24.6,92.3,24.8z M89.5,22
				c-1.2,0-1.7,0.8-1.7,1.7H91C91,22.8,90.5,22,89.5,22z"/>
			<path fill="#66717E" d="M96.1,27.7c-1,0-1.9-0.3-2.7-0.7l0.5-1c0.7,0.4,1.4,0.7,2.2,0.7c0.7,0,1.1-0.2,1.1-0.8
				c0-0.6-0.7-0.8-1.4-1c-1.1-0.3-2.2-0.7-2.2-2c0-1.1,0.9-1.8,2.5-1.8c0.8,0,1.5,0.2,2.3,0.5l-0.4,1c-0.5-0.3-1.2-0.5-1.8-0.5
				c-0.7,0-1.2,0.2-1.2,0.7c0,0.6,0.7,0.7,1.5,0.9c1,0.2,2.1,0.6,2.1,2C98.7,27,97.7,27.7,96.1,27.7z"/>
			<path fill="#66717E" d="M101,20.2c-0.5,0-0.9-0.3-0.9-0.8c0-0.5,0.4-0.8,0.9-0.8c0.6,0,0.9,0.3,0.9,0.8
				C101.9,19.9,101.5,20.2,101,20.2z M100.2,27.5v-6.4h1.5v6.4H100.2z"/>
			<path fill="#66717E" d="M109.4,27.6c0,2.3-1.1,2.8-2.7,2.8c-1.1,0-1.9-0.2-2.8-0.7l0.4-1.1c0.7,0.4,1.4,0.7,2.3,0.7
				c0.9,0,1.3-0.3,1.3-1.2v-1.5h0c-0.4,0.7-1,0.9-1.8,0.9c-1.9,0-2.7-1.4-2.7-3.3c0-1.8,0.7-3.3,2.6-3.3c0.8,0,1.5,0.2,1.9,1h0
				l0.1-0.8h1.3V27.6z M107.9,23.4c0-0.9-0.6-1.4-1.4-1.4c-1.3,0-1.5,1.1-1.5,2.1c0,1.1,0.3,2.2,1.5,2.2c1.1,0,1.4-0.7,1.4-1.7V23.4
				z"/>
			<path fill="#66717E" d="M115.5,27.5v-3.7c0-1-0.1-1.6-1.2-1.6c-1,0-1.4,0.5-1.4,1.4v3.9h-1.5v-6.4h1.3l0.1,0.8h0
				c0.4-0.7,1.1-0.9,1.9-0.9c1.8,0,2.3,1,2.3,2.6v3.9H115.5z"/>
		</g>
	</g>
</g>
</svg>
