<?xml version="1.0" encoding="utf-8"?>
<!-- Generator: Adobe Illustrator 18.1.1, SVG Export Plug-In . SVG Version: 6.00 Build 0)  -->
<svg version="1.1" id="Layer_1" xmlns="http://www.w3.org/2000/svg" xmlns:xlink="http://www.w3.org/1999/xlink" x="0px" y="0px"
	 viewBox="0 0 164.3 18.3" enable-background="new 0 0 164.3 18.3" xml:space="preserve">
<g>
	<g>
		<g>
			<path fill="#3A9ECF" d="M12.2,13.2c-1.4,0-3.1-0.8-4.6-2.2C6.1,9.7,5.4,8.4,5.4,7.2c0-0.6,0.3-1.2,0.7-1.6C7.3,4.4,9.5,5,11.7,7
				c0.7,0.6,1.2,1.3,1.6,1.9c0.2,0.3,0.1,0.6-0.2,0.8c-0.3,0.2-0.6,0.1-0.8-0.2C12,9,11.5,8.4,10.9,7.9c-1.7-1.6-3.3-2.1-4-1.4
				C6.6,6.7,6.5,6.9,6.5,7.3c0,0.8,0.7,1.8,1.8,2.9c1.7,1.6,3.6,2.3,4.7,1.8c3.3-1.4,2.3-5.4,1.9-6.6C14.8,5,15,4.7,15.3,4.6
				C15.6,4.5,15.9,4.7,16,5c0.9,2.9,0.8,6.5-2.5,8C13.1,13.2,12.6,13.2,12.2,13.2z"/>
		</g>
		<g>
			<path fill="#3A9ECF" d="M12.8,15.7c-2.2,0-4.7-1.1-6.8-3.1c0,0,0,0,0,0l0,0c0,0,0,0-0.1-0.1l-0.1-0.1C4,10.8,2.9,9,2.7,7.2
				C2.6,5.8,3,4.6,4,3.7c0.9-0.9,2.2-1.3,3.7-1.2c1.8,0.2,3.8,1.2,5.6,2.9l0.1,0.1c0.2,0.2,0.2,0.6,0,0.8c-0.2,0.2-0.6,0.2-0.8,0
				l-0.1-0.1c-1.6-1.5-3.3-2.4-4.9-2.6C6.4,3.6,5.4,3.9,4.8,4.5c-0.7,0.6-1,1.6-0.9,2.6c0.2,1.5,1.1,3,2.7,4.6l0.1,0.1c0,0,0,0,0,0
				l0.1,0.1c2.6,2.5,5.7,3.4,7.9,2.5c1.1-0.5,2-1.3,2.6-2.3c0.2-0.3,0.5-0.4,0.8-0.2c0.3,0.2,0.4,0.5,0.2,0.8
				c-0.7,1.2-1.8,2.1-3.1,2.7C14.4,15.6,13.6,15.7,12.8,15.7z"/>
		</g>
		<g>
			<path fill="#3A9ECF" d="M13.3,18.3c-3,0-6.2-1.4-9.1-4c0,0,0,0-0.1-0.1l-0.1-0.1C1.7,11.8,0.3,9.3,0,6.9C-0.2,4.9,0.5,3,1.9,1.7
				C3.2,0.4,5.2-0.2,7.4,0c2.1,0.2,4.3,1.1,6.3,2.7C13.9,3,14,3.3,13.8,3.6c-0.2,0.2-0.6,0.3-0.8,0.1c-1.9-1.5-3.9-2.3-5.8-2.5
				C5.4,1,3.8,1.5,2.7,2.6C1.5,3.6,1,5.1,1.2,6.8c0.2,2.1,1.5,4.4,3.7,6.4L5,13.4c0,0,0,0,0,0c0,0,0,0,0,0c3.6,3.3,7.9,4.6,11.1,3.2
				c0.3-0.1,0.6,0,0.8,0.3c0.1,0.3,0,0.6-0.3,0.8C15.6,18,14.5,18.3,13.3,18.3z"/>
		</g>
	</g>
	<g>
		<g>
			<g>
				<g>
					<path fill="#66717E" d="M31.4,12.5c-2.7,0-4-1.8-4-4.5c0-2.5,1.4-4.4,4-4.4c1.2,0,2.2,0.4,3.1,1.3l-0.9,1c-0.7-0.7-1.3-1-2.1-1
						C29.9,5,29,6,29,8.1c0,1.8,0.7,3.1,2.4,3.1c0.8,0,1.6-0.3,2.3-1l0.8,1C33.6,12.1,32.6,12.5,31.4,12.5z"/>
					<path fill="#66717E" d="M41.7,9.6h-4.5c0,1.1,0.6,1.7,1.8,1.7c0.7,0,1.2-0.2,1.9-0.6l0.5,1c-0.8,0.5-1.6,0.7-2.5,0.7
						c-2.1,0-3.2-1.3-3.2-3.3c0-2.3,1.4-3.4,3.1-3.4c1.8,0,2.9,1.3,2.9,3.3C41.7,9.2,41.7,9.5,41.7,9.6z M38.9,6.9
						c-1.2,0-1.7,0.8-1.7,1.7h3.2C40.4,7.6,39.9,6.9,38.9,6.9z"/>
					<path fill="#66717E" d="M47.6,12.4V8.7c0-1-0.1-1.6-1.2-1.6c-0.9,0-1.4,0.5-1.4,1.4v3.9h-1.5V5.9h1.3l0.1,0.8h0
						c0.4-0.7,1.1-0.9,1.9-0.9c1.8,0,2.3,1,2.3,2.6v3.9H47.6z"/>
					<path fill="#66717E" d="M53.4,12.4c-1.7,0-2-0.5-2-1.8V7.1h-1V5.9h1.1V4.2h1.5v1.7h1.5v1.2h-1.5v3.3c0,0.7,0,0.8,1.1,0.8
						c0.1,0,0.2,0,0.4,0v1.2C54,12.4,53.7,12.4,53.4,12.4z"/>
					<path fill="#66717E" d="M61.5,9.6h-4.5c0,1.1,0.6,1.7,1.8,1.7c0.7,0,1.2-0.2,1.9-0.6l0.5,1c-0.8,0.5-1.6,0.7-2.5,0.7
						c-2.1,0-3.2-1.3-3.2-3.3c0-2.3,1.4-3.4,3.1-3.4c1.8,0,2.9,1.3,2.9,3.3C61.6,9.2,61.6,9.5,61.5,9.6z M58.7,6.9
						c-1.2,0-1.7,0.8-1.7,1.7h3.1C60.2,7.6,59.7,6.9,58.7,6.9z"/>
					<path fill="#66717E" d="M66.6,7.1c-1.1,0-1.9,0.2-1.9,1.4v3.9h-1.5V5.9h1.3l0.1,0.8h0c0.4-0.7,0.9-1,1.9-1H67v1.3H66.6z"/>
					<path fill="#66717E" d="M74.7,4.4c-0.7,0-0.9,0.2-0.9,0.8v0.7h1.4v1.2h-1.4v5.2h-1.5V7.1h-1V5.9h1V5.1c0-1.2,0.3-1.7,2.1-1.7
						c0.3,0,0.6,0,0.9,0.1v1.1C75.1,4.5,75,4.4,74.7,4.4z"/>
					<path fill="#66717E" d="M79.5,5.8c2.1,0,3.2,1.3,3.2,3.4c0,1.9-1,3.4-3.2,3.4c-2.2,0-3.2-1.4-3.2-3.4
						C76.3,7.3,77.2,5.8,79.5,5.8z M79.5,11.4c1.2,0,1.6-0.9,1.6-2.2c0-1.3-0.4-2.2-1.6-2.2c-1.3,0-1.7,0.9-1.7,2.2
						C77.8,10.5,78.2,11.4,79.5,11.4z"/>
					<path fill="#66717E" d="M87.7,7.1c-1.1,0-1.9,0.2-1.9,1.4v3.9h-1.5V5.9h1.3l0.1,0.8h0c0.4-0.7,0.9-1,1.9-1H88v1.3H87.7z"/>
				</g>
			</g>
		</g>
		<g>
			<g>
				<path fill="#66717E" d="M31.4,12.5c-2.7,0-4-1.8-4-4.5c0-2.5,1.4-4.4,4-4.4c1.2,0,2.2,0.4,3.1,1.3l-0.9,1c-0.7-0.7-1.3-1-2.1-1
					C29.9,5,29,6,29,8.1c0,1.8,0.7,3.1,2.4,3.1c0.8,0,1.6-0.3,2.3-1l0.8,1C33.6,12.1,32.6,12.5,31.4,12.5z"/>
				<path fill="#66717E" d="M41.7,9.6h-4.5c0,1.1,0.6,1.7,1.8,1.7c0.7,0,1.2-0.2,1.9-0.6l0.5,1c-0.8,0.5-1.6,0.7-2.5,0.7
					c-2.1,0-3.2-1.3-3.2-3.3c0-2.3,1.4-3.4,3.1-3.4c1.8,0,2.9,1.3,2.9,3.3C41.7,9.2,41.7,9.5,41.7,9.6z M38.9,6.9
					c-1.2,0-1.7,0.8-1.7,1.7h3.2C40.4,7.6,39.9,6.9,38.9,6.9z"/>
				<path fill="#66717E" d="M47.6,12.4V8.7c0-1-0.1-1.6-1.2-1.6c-0.9,0-1.4,0.5-1.4,1.4v3.9h-1.5V5.9h1.3l0.1,0.8h0
					c0.4-0.7,1.1-0.9,1.9-0.9c1.8,0,2.3,1,2.3,2.6v3.9H47.6z"/>
				<path fill="#66717E" d="M53.4,12.4c-1.7,0-2-0.5-2-1.8V7.1h-1V5.9h1.1V4.2h1.5v1.7h1.5v1.2h-1.5v3.3c0,0.7,0,0.8,1.1,0.8
					c0.1,0,0.2,0,0.4,0v1.2C54,12.4,53.7,12.4,53.4,12.4z"/>
				<path fill="#66717E" d="M61.5,9.6h-4.5c0,1.1,0.6,1.7,1.8,1.7c0.7,0,1.2-0.2,1.9-0.6l0.5,1c-0.8,0.5-1.6,0.7-2.5,0.7
					c-2.1,0-3.2-1.3-3.2-3.3c0-2.3,1.4-3.4,3.1-3.4c1.8,0,2.9,1.3,2.9,3.3C61.6,9.2,61.6,9.5,61.5,9.6z M58.7,6.9
					c-1.2,0-1.7,0.8-1.7,1.7h3.1C60.2,7.6,59.7,6.9,58.7,6.9z"/>
				<path fill="#66717E" d="M66.6,7.1c-1.1,0-1.9,0.2-1.9,1.4v3.9h-1.5V5.9h1.3l0.1,0.8h0c0.4-0.7,0.9-1,1.9-1H67v1.3H66.6z"/>
				<path fill="#66717E" d="M74.7,4.4c-0.7,0-0.9,0.2-0.9,0.8v0.7h1.4v1.2h-1.4v5.2h-1.5V7.1h-1V5.9h1V5.1c0-1.2,0.3-1.7,2.1-1.7
					c0.3,0,0.6,0,0.9,0.1v1.1C75.1,4.5,75,4.4,74.7,4.4z"/>
				<path fill="#66717E" d="M79.5,5.8c2.1,0,3.2,1.3,3.2,3.4c0,1.9-1,3.4-3.2,3.4c-2.2,0-3.2-1.4-3.2-3.4
					C76.3,7.3,77.2,5.8,79.5,5.8z M79.5,11.4c1.2,0,1.6-0.9,1.6-2.2c0-1.3-0.4-2.2-1.6-2.2c-1.3,0-1.7,0.9-1.7,2.2
					C77.8,10.5,78.2,11.4,79.5,11.4z"/>
				<path fill="#66717E" d="M87.7,7.1c-1.1,0-1.9,0.2-1.9,1.4v3.9h-1.5V5.9h1.3l0.1,0.8h0c0.4-0.7,0.9-1,1.9-1H88v1.3H87.7z"/>
			</g>
		</g>
		<g>
			<g>
				<path fill="#66717E" d="M96.5,12.5c-2.7,0-4-1.8-4-4.5c0-2.5,1.4-4.4,4-4.4c1.2,0,2.2,0.4,3.1,1.3l-0.9,1c-0.7-0.7-1.3-1-2.1-1
					c-1.5,0-2.5,1-2.5,3.1c0,1.8,0.7,3.1,2.4,3.1c0.8,0,1.6-0.3,2.3-1l0.8,1C98.7,12.1,97.7,12.5,96.5,12.5z"/>
				<path fill="#66717E" d="M101.9,5.1c-0.5,0-0.9-0.3-0.9-0.8c0-0.5,0.4-0.8,0.9-0.8c0.6,0,0.9,0.3,0.9,0.8
					C102.9,4.8,102.5,5.1,101.9,5.1z M101.2,12.4V5.9h1.5v6.4H101.2z"/>
				<path fill="#66717E" d="M108,12.4h-1.7L104,5.9h1.6l1.5,5.1h0l1.5-5.1h1.5L108,12.4z"/>
				<path fill="#66717E" d="M112.4,5.1c-0.5,0-0.9-0.3-0.9-0.8c0-0.5,0.4-0.8,0.9-0.8c0.5,0,0.9,0.3,0.9,0.8
					C113.3,4.8,112.9,5.1,112.4,5.1z M111.6,12.4V5.9h1.5v6.4H111.6z"/>
				<path fill="#66717E" d="M119.7,7.6c-0.5-0.5-1-0.7-1.7-0.7c-1.3,0-1.8,1-1.8,2.2c0,1.2,0.4,2.2,1.8,2.2c0.7,0,1.2-0.2,1.8-0.7
					l0.5,1c-0.7,0.5-1.4,0.8-2.4,0.8c-2,0-3.2-1.3-3.2-3.3c0-2,1.2-3.4,3.2-3.4c0.8,0,1.7,0.3,2.4,0.9L119.7,7.6z"/>
				<path fill="#66717E" d="M128.2,12.4h-2.8V3.9c0.8-0.1,1.8-0.2,2.8-0.2c2.6,0,4.2,1.4,4.2,4.3C132.4,10.8,131,12.4,128.2,12.4z
					 M128.2,4.9c-0.4,0-0.9,0-1.3,0.1v6.1c0.4,0,0.8,0,1.1,0c1.8,0,2.8-0.7,2.8-3.1C130.8,6.6,130.4,4.9,128.2,4.9z"/>
				<path fill="#66717E" d="M139.7,9.6h-4.5c0,1.1,0.6,1.7,1.8,1.7c0.7,0,1.2-0.2,1.9-0.6l0.5,1c-0.8,0.5-1.6,0.7-2.5,0.7
					c-2.1,0-3.2-1.3-3.2-3.3c0-2.3,1.4-3.4,3.1-3.4c1.8,0,2.9,1.3,2.9,3.3C139.7,9.2,139.7,9.5,139.7,9.6z M136.8,6.9
					c-1.2,0-1.6,0.8-1.6,1.7h3.1C138.3,7.6,137.9,6.9,136.8,6.9z"/>
				<path fill="#66717E" d="M143.5,12.5c-1,0-1.9-0.3-2.7-0.7l0.5-1c0.7,0.4,1.4,0.7,2.2,0.7c0.7,0,1.1-0.2,1.1-0.8
					c0-0.6-0.7-0.8-1.4-1c-1.1-0.3-2.2-0.6-2.2-2c0-1.1,0.9-1.8,2.5-1.8c0.8,0,1.5,0.2,2.3,0.5l-0.4,1c-0.5-0.3-1.2-0.5-1.8-0.5
					c-0.7,0-1.2,0.2-1.2,0.7c0,0.6,0.7,0.7,1.5,0.9c1,0.2,2.1,0.6,2.1,2C146,11.9,145.1,12.5,143.5,12.5z"/>
				<path fill="#66717E" d="M148.3,5.1c-0.5,0-0.9-0.3-0.9-0.8c0-0.5,0.4-0.8,0.9-0.8c0.6,0,0.9,0.3,0.9,0.8
					C149.2,4.8,148.9,5.1,148.3,5.1z M147.6,12.4V5.9h1.5v6.4H147.6z"/>
				<path fill="#66717E" d="M156.7,12.5c0,2.3-1.1,2.8-2.7,2.8c-1.1,0-1.9-0.2-2.8-0.7l0.4-1.1c0.7,0.4,1.4,0.7,2.3,0.7
					c0.9,0,1.3-0.3,1.3-1.2v-1.4h0c-0.4,0.7-1,0.9-1.8,0.9c-1.9,0-2.7-1.4-2.7-3.3c0-1.8,0.7-3.3,2.6-3.3c0.8,0,1.5,0.2,1.9,1h0
					l0.1-0.8h1.3V12.5z M155.2,8.3c0-0.9-0.5-1.4-1.4-1.4c-1.3,0-1.5,1.1-1.5,2.1c0,1.1,0.3,2.2,1.5,2.2c1.1,0,1.4-0.7,1.4-1.7V8.3z
					"/>
				<path fill="#66717E" d="M162.8,12.4V8.7c0-1-0.1-1.6-1.2-1.6c-0.9,0-1.4,0.5-1.4,1.4v3.9h-1.5V5.9h1.3l0.1,0.8h0
					c0.4-0.7,1.1-0.9,1.9-0.9c1.8,0,2.3,1,2.3,2.6v3.9H162.8z"/>
			</g>
		</g>
	</g>
</g>
</svg>
